<svg id="Layer_1" data-name="Layer 1" xmlns="http://www.w3.org/2000/svg" viewBox="0 0 1920 1080"><defs><style>.cls-1,.cls-2{fill:none;stroke:#000;stroke-miterlimit:10;}.cls-1{stroke-width:3px;}.cls-2{stroke-width:2px;}.cls-3{fill:#d5e2e8;}.cls-4{fill:#ff422d;}.cls-5{fill:#4c213a;}.cls-6{fill:#e7b3a8;}</style></defs><title>Artboard 1</title><rect class="cls-1" width="435.12" height="1080"/><rect class="cls-1" x="1484.88" width="435.12" height="1080" transform="translate(3404.88 1080) rotate(-180)"/><rect class="cls-2" x="435.12" width="1049.77" height="1080"/><path class="cls-3" d="M137.11,943.94a55.32,55.32,0,0,0,0,78.23h0a55.31,55.31,0,0,0,78.22,0l44.53-44.53-78.22-78.22Z"/><path class="cls-4" d="M304.38,854.89h0a55.31,55.31,0,0,0-78.22,0l-44.52,44.53,78.22,78.22,44.52-44.52A55.32,55.32,0,0,0,304.38,854.89Z"/><path d="M307.31,852a59.45,59.45,0,0,0-84.08,0l-44.52,44.53h0L134.18,941a59.46,59.46,0,0,0,84.08,84.09l44.53-44.53h0l44.52-44.52a59.44,59.44,0,0,0,0-84.08Zm-94.9,167.27A51.17,51.17,0,1,1,140,946.87l41.6-41.59L254,977.64Zm89-89-41.59,41.59L187.5,899.42l41.59-41.6a51.17,51.17,0,1,1,72.36,72.37Z"/><path d="M142.42,951.34,140.77,953a4.14,4.14,0,0,0,5.86,5.86l1.65-1.66a4.14,4.14,0,1,0-5.86-5.86Z"/><path d="M179.29,914.47,152.78,941a4.14,4.14,0,1,0,5.86,5.85l26.51-26.51a4.14,4.14,0,0,0-5.86-5.86Z"/><path class="cls-5" d="M1740.25,1034.83h-105.4a27.43,27.43,0,0,1-27.4-27.4V914.35a27.43,27.43,0,0,1,27.4-27.4h15.73v-5.54a6.16,6.16,0,0,1,12.32,0v11.71a6.16,6.16,0,0,1-6.16,6.16h-21.89a15.09,15.09,0,0,0-15.08,15.07v93.08a15.09,15.09,0,0,0,15.08,15.07h105.4a15.09,15.09,0,0,0,15.07-15.07V960.3a6.16,6.16,0,0,1,12.32,0v47.13A27.43,27.43,0,0,1,1740.25,1034.83Z"/><path class="cls-5" d="M1761.48,933.16a6.16,6.16,0,0,1-6.16-6.16V914.35a15.09,15.09,0,0,0-15.07-15.07h-21.9a6.16,6.16,0,0,1-6.16-6.16V881.41a6.16,6.16,0,0,1,12.32,0V887h15.74a27.43,27.43,0,0,1,27.39,27.4V927A6.16,6.16,0,0,1,1761.48,933.16Z"/><path class="cls-6" d="M1728.52,859.23h-82a19.1,19.1,0,0,1-19.1-19.1h0a19.11,19.11,0,0,1,19.1-19.11h82a19.11,19.11,0,0,1,19.1,19.11h0A19.1,19.1,0,0,1,1728.52,859.23Z"/><path class="cls-5" d="M1728.52,865.39h-82a25.27,25.27,0,0,1,0-50.53h82a25.27,25.27,0,0,1,0,50.53Zm-82-38.2a12.94,12.94,0,1,0,0,25.87h82a12.94,12.94,0,1,0,0-25.87Z"/><path class="cls-6" d="M1723.55,991.46h-72a7.33,7.33,0,0,1-7.33-7.32V937.65a7.33,7.33,0,0,1,7.33-7.33h72a7.33,7.33,0,0,1,7.33,7.33v46.49A7.33,7.33,0,0,1,1723.55,991.46Z"/><path class="cls-5" d="M1723.55,997.62h-72a13.5,13.5,0,0,1-13.49-13.48V937.65a13.5,13.5,0,0,1,13.49-13.49h72A13.5,13.5,0,0,1,1737,937.65v46.49A13.5,13.5,0,0,1,1723.55,997.62Zm-72-61.13a1.16,1.16,0,0,0-1.17,1.16v46.49a1.16,1.16,0,0,0,1.17,1.16h72a1.16,1.16,0,0,0,1.17-1.16V937.65a1.16,1.16,0,0,0-1.17-1.16Z"/><path class="cls-5" d="M1687.55,978.74a6.16,6.16,0,0,1-6.17-6.16V949.21a6.17,6.17,0,0,1,12.33,0v23.37A6.16,6.16,0,0,1,1687.55,978.74Z"/><path class="cls-5" d="M1699.23,967.05h-23.37a6.16,6.16,0,1,1,0-12.32h23.37a6.16,6.16,0,1,1,0,12.32Z"/><path class="cls-5" d="M279,781.15H176.21a26.74,26.74,0,0,1-26.71-26.71V663.69A26.74,26.74,0,0,1,176.21,637h15.33v-5.4a6,6,0,1,1,12,0V643a6,6,0,0,1-6,6H176.21a14.71,14.71,0,0,0-14.7,14.69v90.75a14.72,14.72,0,0,0,14.7,14.7H279a14.72,14.72,0,0,0,14.69-14.7v-46a6,6,0,0,1,12,0v46A26.75,26.75,0,0,1,279,781.15Z"/><path class="cls-5" d="M299.67,682a6,6,0,0,1-6-6V663.69A14.71,14.71,0,0,0,279,649H257.62a6,6,0,0,1-6-6V631.58a6,6,0,0,1,12,0V637H279a26.74,26.74,0,0,1,26.71,26.71V676A6,6,0,0,1,299.67,682Z"/><path class="cls-6" d="M267.53,610H187.64A18.62,18.62,0,0,1,169,591.33h0a18.62,18.62,0,0,1,18.62-18.62h79.89a18.61,18.61,0,0,1,18.62,18.62h0A18.62,18.62,0,0,1,267.53,610Z"/><path class="cls-5" d="M267.53,616H187.64a24.63,24.63,0,1,1,0-49.26h79.89a24.63,24.63,0,1,1,0,49.26Zm-79.89-37.25a12.62,12.62,0,0,0,0,25.23h79.89a12.62,12.62,0,1,0,0-25.23Z"/><path class="cls-6" d="M262.69,738.87H192.48a7.14,7.14,0,0,1-7.14-7.14V686.41a7.13,7.13,0,0,1,7.14-7.14h70.21a7.13,7.13,0,0,1,7.14,7.14v45.32A7.14,7.14,0,0,1,262.69,738.87Z"/><path class="cls-5" d="M262.69,744.88H192.48a13.17,13.17,0,0,1-13.15-13.15V686.41a13.17,13.17,0,0,1,13.15-13.15h70.21a13.17,13.17,0,0,1,13.15,13.15v45.32A13.17,13.17,0,0,1,262.69,744.88Zm-70.21-59.61a1.14,1.14,0,0,0-1.14,1.14v45.32a1.14,1.14,0,0,0,1.14,1.14h70.21a1.14,1.14,0,0,0,1.14-1.14V686.41a1.14,1.14,0,0,0-1.14-1.14Z"/><path class="cls-5" d="M227.59,726.47a6,6,0,0,1-6-6V697.68a6,6,0,1,1,12,0v22.78A6,6,0,0,1,227.59,726.47Z"/><path class="cls-5" d="M239,715.08H216.19a6,6,0,0,1,0-12H239a6,6,0,0,1,0,12Z"/><path class="cls-3" d="M1607.92,668.51a56.73,56.73,0,0,0,0,80.24h0a56.74,56.74,0,0,0,80.23,0l45.67-45.67-80.23-80.24Z"/><path class="cls-4" d="M1779.49,577.17h0a56.74,56.74,0,0,0-80.23,0l-45.67,45.67,80.24,80.24,45.66-45.67A56.73,56.73,0,0,0,1779.49,577.17Z"/><path d="M1782.5,574.17a61,61,0,0,0-86.25,0l-45.66,45.67h0l-45.67,45.67a61,61,0,0,0,86.24,86.24l45.67-45.67h0l45.67-45.67a61,61,0,0,0,0-86.24Zm-97.35,171.57a52.48,52.48,0,1,1-74.22-74.22l42.66-42.67,74.23,74.23Zm91.34-91.34-42.67,42.67-74.22-74.23,42.66-42.66a52.49,52.49,0,0,1,74.23,74.22Z"/><path d="M1613.37,676.1l-1.7,1.7a4.25,4.25,0,1,0,6,6l1.7-1.7a4.25,4.25,0,1,0-6-6Z"/><path d="M1651.19,638.28l-27.2,27.2a4.25,4.25,0,0,0,6,6l27.2-27.2a4.25,4.25,0,1,0-6-6Z"/><path class="cls-3" d="M150,414.73A55.32,55.32,0,0,0,150,493h0a55.31,55.31,0,0,0,78.22,0l44.52-44.53-78.22-78.22Z"/><path class="cls-4" d="M317.23,325.68h0a55.31,55.31,0,0,0-78.22,0l-44.53,44.53,78.22,78.22,44.53-44.52A55.32,55.32,0,0,0,317.23,325.68Z"/><path d="M320.16,322.76a59.45,59.45,0,0,0-84.08,0l-44.53,44.53h0L147,411.8a59.46,59.46,0,0,0,84.08,84.09l44.52-44.53h0l44.53-44.52a59.46,59.46,0,0,0,0-84.08ZM225.25,490a51.17,51.17,0,1,1-72.36-72.37l41.59-41.59,72.37,72.36Zm89.05-89-41.6,41.59-72.36-72.36,41.59-41.6A51.17,51.17,0,1,1,314.3,401Z"/><path d="M155.27,422.13l-1.66,1.66a4.14,4.14,0,0,0,5.86,5.86l1.66-1.66a4.14,4.14,0,0,0-5.86-5.86Z"/><path d="M192.14,385.26l-26.52,26.52a4.14,4.14,0,1,0,5.86,5.85L198,391.12a4.14,4.14,0,0,0-5.86-5.86Z"/><path class="cls-5" d="M291.81,251.94H189.05a26.74,26.74,0,0,1-26.71-26.71V134.48a26.74,26.74,0,0,1,26.71-26.71h15.34v-5.4a6,6,0,1,1,12,0v11.41a6,6,0,0,1-6,6H189.05a14.72,14.72,0,0,0-14.7,14.69v90.75a14.72,14.72,0,0,0,14.7,14.7H291.81a14.72,14.72,0,0,0,14.7-14.7V179.28a6,6,0,1,1,12,0v45.95A26.74,26.74,0,0,1,291.81,251.94Z"/><path class="cls-5" d="M312.51,152.82a6,6,0,0,1-6-6V134.48a14.72,14.72,0,0,0-14.7-14.69H270.46a6,6,0,0,1-6-6V102.37a6,6,0,1,1,12,0v5.4h15.34a26.74,26.74,0,0,1,26.71,26.71v12.34A6,6,0,0,1,312.51,152.82Z"/><path class="cls-6" d="M280.38,80.74h-79.9a18.62,18.62,0,0,1-18.62-18.62h0A18.62,18.62,0,0,1,200.48,43.5h79.9A18.62,18.62,0,0,1,299,62.12h0A18.62,18.62,0,0,1,280.38,80.74Z"/><path class="cls-5" d="M280.38,86.75h-79.9a24.63,24.63,0,0,1,0-49.26h79.9a24.63,24.63,0,0,1,0,49.26ZM200.48,49.5a12.62,12.62,0,0,0,0,25.23h79.9a12.62,12.62,0,0,0,0-25.23Z"/><path class="cls-6" d="M275.54,209.66H205.32a7.14,7.14,0,0,1-7.14-7.14V157.2a7.14,7.14,0,0,1,7.14-7.14h70.22a7.14,7.14,0,0,1,7.14,7.14v45.32A7.14,7.14,0,0,1,275.54,209.66Z"/><path class="cls-5" d="M275.54,215.67H205.32a13.17,13.17,0,0,1-13.15-13.15V157.2a13.17,13.17,0,0,1,13.15-13.15h70.22a13.17,13.17,0,0,1,13.15,13.15v45.32A13.17,13.17,0,0,1,275.54,215.67Zm-70.22-59.61a1.14,1.14,0,0,0-1.13,1.14v45.32a1.14,1.14,0,0,0,1.13,1.14h70.22a1.14,1.14,0,0,0,1.13-1.14V157.2a1.14,1.14,0,0,0-1.13-1.14Z"/><path class="cls-5" d="M240.43,197.26a6,6,0,0,1-6-6V168.47a6,6,0,1,1,12,0v22.78A6,6,0,0,1,240.43,197.26Z"/><path class="cls-5" d="M251.82,185.87H229a6,6,0,0,1,0-12h22.78a6,6,0,0,1,0,12Z"/><path class="cls-5" d="M1757.71,506.8h-105.4a27.43,27.43,0,0,1-27.4-27.4V386.33a27.43,27.43,0,0,1,27.4-27.4H1668v-5.54a6.17,6.17,0,0,1,12.33,0v11.7a6.16,6.16,0,0,1-6.16,6.16h-21.9a15.09,15.09,0,0,0-15.07,15.08V479.4a15.09,15.09,0,0,0,15.07,15.08h105.4a15.09,15.09,0,0,0,15.08-15.08V432.28a6.16,6.16,0,1,1,12.32,0V479.4A27.43,27.43,0,0,1,1757.71,506.8Z"/><path class="cls-5" d="M1779,405.14a6.16,6.16,0,0,1-6.16-6.16V386.33a15.09,15.09,0,0,0-15.08-15.08h-21.89a6.16,6.16,0,0,1-6.16-6.16v-11.7a6.16,6.16,0,0,1,12.32,0v5.54h15.73a27.43,27.43,0,0,1,27.4,27.4V399A6.16,6.16,0,0,1,1779,405.14Z"/><path class="cls-6" d="M1746,331.2h-82a19.1,19.1,0,0,1-19.1-19.1h0A19.1,19.1,0,0,1,1664,293h82a19.1,19.1,0,0,1,19.1,19.1h0A19.1,19.1,0,0,1,1746,331.2Z"/><path class="cls-5" d="M1746,337.36h-82a25.26,25.26,0,1,1,0-50.52h82a25.26,25.26,0,0,1,0,50.52Zm-82-38.2a12.94,12.94,0,0,0,0,25.88h82a12.94,12.94,0,0,0,0-25.88Z"/><path class="cls-6" d="M1741,463.44h-72a7.33,7.33,0,0,1-7.32-7.33V409.62a7.32,7.32,0,0,1,7.32-7.32h72a7.33,7.33,0,0,1,7.33,7.32v46.49A7.33,7.33,0,0,1,1741,463.44Z"/><path class="cls-5" d="M1741,469.6h-72a13.5,13.5,0,0,1-13.48-13.49V409.62A13.5,13.5,0,0,1,1669,396.14h72a13.5,13.5,0,0,1,13.49,13.48v46.49A13.5,13.5,0,0,1,1741,469.6Zm-72-61.14a1.16,1.16,0,0,0-1.16,1.17v46.48a1.17,1.17,0,0,0,1.16,1.17h72a1.18,1.18,0,0,0,1.17-1.17V409.63a1.17,1.17,0,0,0-1.17-1.17Z"/><path class="cls-5" d="M1705,450.71a6.16,6.16,0,0,1-6.16-6.16V421.18a6.16,6.16,0,0,1,12.32,0v23.37A6.16,6.16,0,0,1,1705,450.71Z"/><path class="cls-5" d="M1716.7,439h-23.37a6.16,6.16,0,1,1,0-12.32h23.37a6.16,6.16,0,0,1,0,12.32Z"/><path class="cls-3" d="M1625.39,140.49a56.72,56.72,0,0,0,0,80.23h0a56.72,56.72,0,0,0,80.23,0l45.67-45.67-80.23-80.23Z"/><path class="cls-4" d="M1797,49.15h0a56.72,56.72,0,0,0-80.23,0l-45.67,45.67,80.23,80.23L1797,129.38A56.72,56.72,0,0,0,1797,49.15Z"/><path d="M1800,46.14a61,61,0,0,0-86.25,0l-45.67,45.67h0l-45.67,45.67a61,61,0,0,0,86.25,86.25l45.66-45.67h0L1800,132.39a61,61,0,0,0,0-86.25Zm-97.35,171.58a52.49,52.49,0,0,1-74.23-74.23l42.67-42.66,74.22,74.22ZM1794,126.38,1751.29,169l-74.22-74.22,42.66-42.67A52.49,52.49,0,0,1,1794,126.38Z"/><path d="M1630.84,148.08l-1.7,1.7a4.25,4.25,0,0,0,6,6l1.69-1.7a4.25,4.25,0,0,0-6-6Z"/><path d="M1668.65,110.26l-27.19,27.19a4.25,4.25,0,1,0,6,6l27.19-27.19a4.25,4.25,0,1,0-6-6Z"/></svg>