<svg id="Layer_1" data-name="Layer 1" xmlns="http://www.w3.org/2000/svg" viewBox="0 0 433.57 1080"><defs><style>.cls-1{fill:none;stroke:#000;stroke-miterlimit:10;stroke-width:3px;}.cls-2{fill:#d5e2e8;}.cls-3{fill:#ff422d;}.cls-4{fill:#4c213a;}.cls-5{fill:#e7b3a8;}</style></defs><title>Siteimage</title><rect class="cls-1" width="435.12" height="1080"/><path class="cls-2" d="M122.8,941.66a55.32,55.32,0,0,0,0,78.23h0a55.31,55.31,0,0,0,78.22,0l44.53-44.53-78.23-78.22Z"/><path class="cls-3" d="M290.07,852.62h0a55.31,55.31,0,0,0-78.22,0l-44.53,44.52,78.23,78.22,44.52-44.52A55.31,55.31,0,0,0,290.07,852.62Z"/><path d="M293,849.69a59.44,59.44,0,0,0-84.08,0L164.4,894.21h0l-44.52,44.53A59.45,59.45,0,0,0,204,1022.82l44.52-44.53h0L293,933.77a59.46,59.46,0,0,0,0-84.08ZM198.09,1017a51.17,51.17,0,1,1-72.36-72.37L167.32,903l72.37,72.36Zm89-89.05L245.55,969.5l-72.37-72.36,41.6-41.59a51.17,51.17,0,1,1,72.36,72.36Z"/><path d="M128.11,949.06l-1.66,1.66a4.14,4.14,0,0,0,5.86,5.86l1.66-1.66a4.14,4.14,0,0,0-5.86-5.86Z"/><path d="M165,912.2l-26.51,26.51a4.14,4.14,0,0,0,5.86,5.86l26.51-26.52A4.14,4.14,0,0,0,165,912.2Z"/><path class="cls-4" d="M264.65,787H161.89a26.74,26.74,0,0,1-26.71-26.71V669.52a26.74,26.74,0,0,1,26.71-26.71h15.34v-5.4a6,6,0,1,1,12,0v11.41a6,6,0,0,1-6,6H161.89a14.71,14.71,0,0,0-14.69,14.69v90.75A14.72,14.72,0,0,0,161.89,775H264.65a14.72,14.72,0,0,0,14.7-14.7V714.32a6,6,0,0,1,12,0v45.95A26.74,26.74,0,0,1,264.65,787Z"/><path class="cls-4" d="M285.35,687.86a6,6,0,0,1-6-6V669.52a14.72,14.72,0,0,0-14.7-14.69H243.31a6,6,0,0,1-6-6V637.41a6,6,0,1,1,12,0v5.4h15.34a26.74,26.74,0,0,1,26.71,26.71v12.34A6,6,0,0,1,285.35,687.86Z"/><path class="cls-5" d="M253.22,615.78H173.33a18.63,18.63,0,0,1-18.63-18.62h0a18.63,18.63,0,0,1,18.63-18.62h79.89a18.62,18.62,0,0,1,18.62,18.62h0A18.62,18.62,0,0,1,253.22,615.78Z"/><path class="cls-4" d="M253.22,621.79H173.33a24.63,24.63,0,0,1,0-49.26h79.89a24.63,24.63,0,1,1,0,49.26Zm-79.89-37.24a12.61,12.61,0,1,0,0,25.22h79.89a12.61,12.61,0,0,0,0-25.22Z"/><path class="cls-5" d="M248.38,744.7H178.17a7.14,7.14,0,0,1-7.15-7.14V692.24a7.14,7.14,0,0,1,7.15-7.14h70.21a7.14,7.14,0,0,1,7.14,7.14v45.32A7.14,7.14,0,0,1,248.38,744.7Z"/><path class="cls-4" d="M248.38,750.71H178.17A13.17,13.17,0,0,1,165,737.56V692.24a13.17,13.17,0,0,1,13.15-13.15h70.21a13.17,13.17,0,0,1,13.15,13.15v45.32A13.17,13.17,0,0,1,248.38,750.71ZM178.17,691.1a1.14,1.14,0,0,0-1.14,1.14v45.32a1.14,1.14,0,0,0,1.14,1.14h70.21a1.14,1.14,0,0,0,1.13-1.14V692.24a1.14,1.14,0,0,0-1.13-1.14Z"/><path class="cls-4" d="M213.27,732.3a6,6,0,0,1-6-6V703.51a6,6,0,1,1,12,0v22.78A6,6,0,0,1,213.27,732.3Z"/><path class="cls-4" d="M224.66,720.91H201.88a6,6,0,0,1,0-12h22.78a6,6,0,0,1,0,12Z"/><path class="cls-2" d="M122.8,412.45a55.32,55.32,0,0,0,0,78.23h0a55.31,55.31,0,0,0,78.22,0l44.53-44.53-78.23-78.22Z"/><path class="cls-3" d="M290.07,323.41h0a55.29,55.29,0,0,0-78.22,0l-44.53,44.52,78.23,78.22,44.52-44.52A55.31,55.31,0,0,0,290.07,323.41Z"/><path d="M293,320.48a59.44,59.44,0,0,0-84.08,0L164.4,365h0l-44.52,44.53A59.45,59.45,0,0,0,204,493.61l44.52-44.53h0L293,404.56a59.46,59.46,0,0,0,0-84.08ZM198.09,487.75a51.17,51.17,0,1,1-72.36-72.37l41.59-41.59,72.37,72.36Zm89-89.05-41.59,41.59-72.37-72.36,41.6-41.59a51.17,51.17,0,1,1,72.36,72.36Z"/><path d="M128.11,419.85l-1.66,1.66a4.14,4.14,0,0,0,5.86,5.86l1.66-1.66a4.14,4.14,0,1,0-5.86-5.86Z"/><path d="M165,383,138.47,409.5a4.14,4.14,0,0,0,5.86,5.86l26.51-26.52A4.14,4.14,0,1,0,165,383Z"/><path class="cls-4" d="M264.65,249.66H161.89A26.74,26.74,0,0,1,135.18,223V132.21a26.74,26.74,0,0,1,26.71-26.71h15.34v-5.41a6,6,0,0,1,12,0V111.5a6,6,0,0,1-6,6H161.89a14.71,14.71,0,0,0-14.69,14.7V223a14.72,14.72,0,0,0,14.69,14.7H264.65a14.72,14.72,0,0,0,14.7-14.7V177a6,6,0,0,1,12,0V223A26.74,26.74,0,0,1,264.65,249.66Z"/><path class="cls-4" d="M285.36,150.55a6,6,0,0,1-6-6V132.21a14.71,14.71,0,0,0-14.7-14.7H243.31a6,6,0,0,1-6-6V100.09a6,6,0,0,1,12,0v5.41h15.34a26.74,26.74,0,0,1,26.71,26.71v12.33A6,6,0,0,1,285.36,150.55Z"/><path class="cls-5" d="M253.22,78.46H173.33a18.62,18.62,0,0,1-18.62-18.62h0a18.62,18.62,0,0,1,18.62-18.62h79.89a18.62,18.62,0,0,1,18.62,18.62h0A18.62,18.62,0,0,1,253.22,78.46Z"/><path class="cls-4" d="M253.22,84.47H173.33a24.63,24.63,0,0,1,0-49.26h79.89a24.63,24.63,0,1,1,0,49.26ZM173.33,47.23a12.61,12.61,0,1,0,0,25.22h79.89a12.61,12.61,0,0,0,0-25.22Z"/><path class="cls-5" d="M248.38,207.38H178.17a7.14,7.14,0,0,1-7.15-7.14V154.92a7.15,7.15,0,0,1,7.15-7.14h70.21a7.14,7.14,0,0,1,7.14,7.14v45.32A7.14,7.14,0,0,1,248.38,207.38Z"/><path class="cls-4" d="M248.38,213.39H178.17A13.17,13.17,0,0,1,165,200.24V154.92a13.17,13.17,0,0,1,13.15-13.15h70.21a13.17,13.17,0,0,1,13.15,13.15v45.32A13.17,13.17,0,0,1,248.38,213.39Zm-70.21-59.61a1.14,1.14,0,0,0-1.14,1.14v45.32a1.14,1.14,0,0,0,1.14,1.14h70.21a1.13,1.13,0,0,0,1.13-1.14V154.92a1.13,1.13,0,0,0-1.13-1.14Z"/><path class="cls-4" d="M213.27,195a6,6,0,0,1-6-6V166.19a6,6,0,1,1,12,0V189A6,6,0,0,1,213.27,195Z"/><path class="cls-4" d="M224.66,183.59H201.88a6,6,0,1,1,0-12h22.78a6,6,0,0,1,0,12Z"/></svg>